<?xml version="1.0" encoding="UTF-8"?>
<svg version="1.1" xmlns="http://www.w3.org/2000/svg" width="1080" height="1080">
<path d="M0 0 C0.66 0 1.32 0 2 0 C2.25990723 0.48017578 2.51981445 0.96035156 2.78759766 1.45507812 C8.82385374 12.58041878 15.04161271 23.58194344 21.44702148 34.4987793 C26.08248276 42.40574012 30.64854299 50.34994548 35.1875 58.3125 C42.46998722 71.08232379 49.80012288 83.82271081 57.22265625 96.51171875 C63.88396552 107.90231039 70.48641322 119.32385745 77.01913452 130.7885437 C81.63410829 138.88579659 86.29047581 146.95725093 91 155 C96.05630923 163.63497557 101.04607122 172.30606319 106 181 C111.53774539 190.71753555 117.12971934 200.40141245 122.77685547 210.0559082 C127.08279246 217.41978199 131.36229245 224.79851774 135.625 232.1875 C136.25325684 233.27643555 136.88151367 234.36537109 137.52880859 235.48730469 C140.42891699 240.5196012 143.32090064 245.5562215 146.19140625 250.60546875 C146.69244873 251.48638184 147.19349121 252.36729492 147.7097168 253.27490234 C148.68261807 254.98668139 149.65417107 256.69922754 150.62426758 258.41259766 C153.1555869 262.86001208 155.75256793 267.25362667 158.4453125 271.60546875 C159.00839111 272.52021973 159.57146973 273.4349707 160.15161133 274.37744141 C161.23413741 276.12749606 162.32725487 277.87105693 163.43237305 279.60693359 C163.91488525 280.38762207 164.39739746 281.16831055 164.89453125 281.97265625 C165.32612549 282.65593994 165.75771973 283.33922363 166.20239258 284.04321289 C167.23236809 286.57007353 166.98664183 287.47029966 166 290 C165.03777766 291.92391551 164.02143357 293.82108434 162.97265625 295.69921875 C162.35060303 296.81707764 161.7285498 297.93493652 161.08764648 299.08666992 C160.41287117 300.2871004 159.73781622 301.48737373 159.0625 302.6875 C158.37101503 303.92349443 157.67969117 305.15957901 156.98852539 306.39575195 C152.21838061 314.90979942 147.33290676 323.34946664 142.34130859 331.73535156 C139.61990029 336.33014286 136.93830352 340.94829171 134.25 345.5625 C133.66637695 346.56313477 133.08275391 347.56376953 132.48144531 348.59472656 C129.32564716 354.00589601 126.1743845 359.41967015 123.02734375 364.8359375 C122.38442383 365.94122803 121.74150391 367.04651855 121.07910156 368.18530273 C119.8362694 370.32208218 118.59469388 372.45959313 117.35449219 374.59790039 C116.79793945 375.5543042 116.24138672 376.51070801 115.66796875 377.49609375 C115.17578857 378.34357178 114.6836084 379.1910498 114.17651367 380.06420898 C113 382 113 382 112 383 C110.22765766 383.09742491 108.45138566 383.12371438 106.67636776 383.12304783 C104.9334251 383.1260344 104.9334251 383.1260344 103.15527147 383.12908131 C101.86249853 383.12616847 100.56972559 383.12325563 99.23777771 383.12025452 C97.86335593 383.1206901 96.48893423 383.12156476 95.11451298 383.12284368 C91.32003775 383.12509122 87.52559047 383.12106385 83.7311188 383.11606562 C79.64589029 383.111765 75.56066348 383.11320727 71.47543335 383.1139679 C64.39162761 383.11449338 57.30783106 383.11134405 50.22402763 383.10573006 C39.98191618 383.09761833 29.73980918 383.09500017 19.49769486 383.09374207 C2.88233116 383.09155103 -13.73302764 383.08488955 -30.34838867 383.07543945 C-46.49291967 383.06626667 -62.63744934 383.05918518 -78.78198242 383.05493164 C-79.77638923 383.05466892 -80.77079603 383.05440619 -81.79533637 383.05413551 C-86.78376146 383.05283051 -91.77218655 383.0515668 -96.76061165 383.05032361 C-138.17374451 383.03994939 -179.58687198 383.02232967 -221 383 C-220.04310319 381.24431149 -219.08603972 379.4887138 -218.12890625 377.7331543 C-217.59595947 376.75549606 -217.0630127 375.77783783 -216.51391602 374.77055359 C-210.42486435 363.62723799 -204.06154266 352.64856577 -197.64648438 341.69067383 C-193.04669337 333.82251379 -188.51156996 325.9188924 -184 318 C-178.45951253 308.27722877 -172.86396442 298.58859771 -167.21435547 288.92871094 C-157.34368846 272.04665925 -147.61229626 255.08495049 -137.92391968 238.09783936 C-132.74226451 229.0157496 -127.50211611 219.96931092 -122.22290039 210.94360352 C-113.39469119 195.84624987 -104.6675304 180.69012501 -96 165.5 C-86.18313611 148.29563117 -76.26654469 131.14949881 -66.27441406 114.04638672 C-56.94850092 98.07372682 -47.72525924 82.04180172 -38.56030273 65.97631836 C-32.66481046 55.64862826 -26.71494632 45.352332 -20.76464844 35.05615234 C-19.13456433 32.23304874 -17.50799635 29.40795773 -15.8828125 26.58203125 C-11.7849765 19.46287409 -7.67244376 12.35120122 -3.4375 5.3125 C-2.81746094 4.27738281 -2.19742188 3.24226563 -1.55859375 2.17578125 C-1.04425781 1.45777344 -0.52992188 0.73976563 0 0 Z M0 97 C-0.83917969 98.53140625 -0.83917969 98.53140625 -1.6953125 100.09375 C-7.21296423 110.11634963 -12.90074056 120.02890575 -18.68408203 129.90039062 C-22.49642539 136.41112771 -26.26881376 142.94244175 -30 149.5 C-34.26178196 156.98852924 -38.58346648 164.43975171 -42.9375 171.875 C-48.17246497 180.81698355 -53.3042777 189.81200024 -58.38427734 198.84277344 C-61.94350015 205.15987675 -65.57560389 211.42760951 -69.27148438 217.66552734 C-72.48612918 223.10023785 -75.62650665 228.5749649 -78.75 234.0625 C-83.05956286 241.63063143 -87.41669522 249.16913684 -91.8125 256.6875 C-102.80692972 275.49759457 -113.67062898 294.38232655 -124.45849609 313.31152344 C-125.08062988 314.40239258 -125.70276367 315.49326172 -126.34375 316.6171875 C-126.88193359 317.56190918 -127.42011719 318.50663086 -127.97460938 319.47998047 C-130.95923971 324.66710682 -133.98458142 329.830711 -137 335 C-64.07 335 8.86 335 84 335 C87.96 327.74 91.92 320.48 96 313 C99.52763726 307.06106638 103.05726975 301.13069863 106.69921875 295.26171875 C107.16972656 294.47410156 107.64023437 293.68648437 108.125 292.875 C108.51945313 292.23304688 108.91390625 291.59109375 109.3203125 290.9296875 C110.25545481 288.27474323 109.71345484 286.70925023 109 284 C107.86897154 281.62131817 107.86897154 281.62131817 106.40234375 279.24609375 C105.85642578 278.32376953 105.31050781 277.40144531 104.74804688 276.45117188 C104.15056641 275.45666016 103.55308594 274.46214844 102.9375 273.4375 C101.65366966 271.27028796 100.37117043 269.10228697 99.08984375 266.93359375 C98.41808105 265.79905762 97.74631836 264.66452148 97.05419922 263.49560547 C93.98194098 258.28491992 90.99522166 253.02540944 88.00512695 247.76730347 C82.14066273 237.4558817 76.21246829 227.18360073 70.22314453 216.9440918 C60.90391164 201.00664197 51.70346929 185.000577 42.55371094 168.96533203 C33.06216279 152.34091387 23.4673649 135.77651784 13.80859375 119.2487793 C9.49253211 111.85864771 5.22061909 104.44506721 1 97 C0.67 97 0.34 97 0 97 Z " fill="#FF6A00" transform="translate(346,458)"/>
<path d="M0 0 C0.66 0 1.32 0 2 0 C2.36061523 0.66499512 2.72123047 1.32999023 3.09277344 2.01513672 C6.75496656 8.75116676 10.4755365 15.45128603 14.25 22.125 C14.8186377 23.13071045 15.38727539 24.1364209 15.97314453 25.17260742 C19.61119393 31.59055998 23.30533379 37.97110544 27.06298828 44.31958008 C36.64387785 60.5221648 45.94682155 76.88936034 55.27713013 93.2371521 C60.21186988 101.88280197 65.17483003 110.51131406 70.171875 119.12109375 C72.92172965 123.86014181 75.65707061 128.6074998 78.39233398 133.35498047 C83.90267244 142.91837779 89.43135329 152.47042749 95 162 C104.90781931 178.9583957 114.71247907 195.97585377 124.44628906 213.03466797 C133.21973381 228.40133017 142.07388657 243.72154494 151 259 C161.0037914 276.12307136 170.90279216 293.30612958 180.72973633 310.53125 C184.34411283 316.86293358 187.98538136 323.178548 191.64550781 329.48388672 C194.32115197 334.0944761 196.98457037 338.71178513 199.63671875 343.3359375 C205.89347646 354.23395903 212.15600944 365.10998021 218.8515625 375.74633789 C222 380.79291992 222 380.79291992 222 383 C203.19 383 184.38 383 165 383 C161.473125 376.8125 161.473125 376.8125 157.875 370.5 C151.88236119 360.00024589 145.83499406 349.53455123 139.72998047 339.09960938 C136.1663724 333.00695608 132.6454031 326.89339952 129.15625 320.7578125 C126.30883165 315.77483039 123.39815949 310.82856628 120.5 305.875 C115.25464914 296.90753168 110.07760747 287.90300254 104.9375 278.875 C98.08547238 266.84076313 91.0933729 254.893566 84 243 C81.52509694 245.26213474 79.97504144 247.55254003 78.35546875 250.48046875 C77.59834595 251.83712646 77.59834595 251.83712646 76.82592773 253.22119141 C76.28524658 254.20007324 75.74456543 255.17895508 75.1875 256.1875 C74.01707968 258.2833651 72.84515636 260.37839144 71.671875 262.47265625 C71.06666016 263.55305176 70.46144531 264.63344727 69.83789062 265.74658203 C66.92441596 270.9039895 63.93344846 276.0151949 60.9375 281.125 C56.58293251 288.55993425 52.26193579 296.01156619 48 303.5 C43.13017113 312.05495083 38.18108228 320.56159951 33.2109375 329.05859375 C29.96285555 334.61753577 26.72440825 340.18088794 23.55740929 345.78653717 C22.57866721 347.49179234 21.57894686 349.18534882 20.54972267 350.86061859 C17.70807754 355.56314986 15.62927251 359.90203852 14.11459351 365.19299316 C11.73035527 372.27324269 8.70090888 379.08929233 2 383 C-12.20993166 388.02723802 -29.67025412 385.85245156 -44.44970274 385.43345451 C-50.66170174 385.28279641 -56.87401099 385.26927844 -63.08755493 385.24084473 C-74.83715474 385.16642263 -86.58135659 384.96974705 -98.32858527 384.72845697 C-107.71647401 384.53847559 -117.10378949 384.40748369 -126.49316406 384.31835938 C-127.15558595 384.31205401 -127.81800783 384.30574865 -128.50050311 384.29925221 C-131.82415484 384.26792807 -135.14781518 384.23765416 -138.47148013 384.20776653 C-165.98397284 383.95730492 -193.49168328 383.53553288 -221 383 C-220.0505254 381.25858832 -219.1009642 379.51722384 -218.15136719 377.77587891 C-217.62258972 376.80615143 -217.09381226 375.83642395 -216.54901123 374.83731079 C-210.87792395 364.4496281 -205.12325823 354.12182199 -199.09155273 343.9387207 C-195.28524071 337.50671453 -191.5438888 331.03821875 -187.8125 324.5625 C-187.17481689 323.45583984 -186.53713379 322.34917969 -185.88012695 321.20898438 C-184.57175828 318.9377675 -183.26357293 316.66644499 -181.95556641 314.39501953 C-178.80667947 308.92830022 -175.65317956 303.46424408 -172.5 298 C-168.70258592 291.41827957 -164.90551907 284.83635927 -161.109375 278.25390625 C-141.9923271 245.10677092 -141.9923271 245.10677092 -135.66796875 234.3046875 C-134.48687719 232.28651801 -133.3058891 230.26828796 -132.125 228.25 C-131.54194092 227.25387695 -130.95888184 226.25775391 -130.3581543 225.23144531 C-125.50590717 216.91865494 -120.76472558 208.54566596 -116.08642578 200.13378906 C-115.57837402 199.2259668 -115.07032227 198.31814453 -114.546875 197.3828125 C-114.10182617 196.58246582 -113.65677734 195.78211914 -113.19824219 194.95751953 C-112 193 -112 193 -110 191 C-107.6335144 190.75949097 -107.6335144 190.75949097 -104.63232422 190.77294922 C-102.95080765 190.77317581 -102.95080765 190.77317581 -101.23532104 190.77340698 C-100.02071198 190.78372955 -98.80610291 190.79405212 -97.5546875 190.8046875 C-96.31453888 190.8075174 -95.07439026 190.81034729 -93.79666138 190.81326294 C-90.49875367 190.82257826 -87.20104028 190.8405511 -83.90319824 190.8626709 C-80.5383543 190.88312526 -77.17348193 190.89226377 -73.80859375 190.90234375 C-67.20565277 190.92443481 -60.60284229 190.95793517 -54 191 C-55.41792161 194.62138201 -57.00154162 197.96563988 -58.90625 201.359375 C-59.47988281 202.38361572 -60.05351563 203.40785645 -60.64453125 204.46313477 C-61.25683594 205.54780029 -61.86914062 206.63246582 -62.5 207.75 C-63.13292969 208.875271 -63.76585937 210.00054199 -64.41796875 211.15991211 C-69.06652945 219.40156035 -73.81802279 227.5751806 -78.64697266 235.71191406 C-91.39650036 257.27246506 -103.87153421 278.99779432 -116.28152466 300.75509644 C-121.12964911 309.25434668 -125.98362007 317.74929022 -130.9375 326.1875 C-131.34460205 326.88238525 -131.7517041 327.57727051 -132.17114258 328.29321289 C-134.87409665 332.87409665 -134.87409665 332.87409665 -136 334 C-100.03 334.33 -64.06 334.66 -27 335 C-26.34 333.35 -25.68 331.7 -25 330 C-23.96310728 328.06003488 -22.89208452 326.13811842 -21.796875 324.23046875 C-21.15363281 323.10705078 -20.51039063 321.98363281 -19.84765625 320.82617188 C-19.14855234 319.61321505 -18.44933056 318.40032616 -17.75 317.1875 C-17.02454649 315.92393897 -16.29928874 314.66026552 -15.57421875 313.39648438 C-10.52138081 304.59926728 -5.41481971 295.83371127 -0.28979492 287.07836914 C4.16734421 279.45453039 8.56285037 271.79636117 12.9375 264.125 C23.67282692 245.30213921 34.49700457 226.5316644 45.43408203 207.82519531 C46.49217469 206.0151922 47.54498764 204.20208736 48.59130859 202.38525391 C49.47153494 200.89481865 50.38632145 199.4236615 51.35009766 197.98583984 C53.17335215 195.20033329 54.07755477 193.59041696 53.63671875 190.234375 C51.2178667 185.45440008 48.55675273 180.84973756 45.8125 176.25 C44.53971546 174.09283078 43.26760309 171.93526486 41.99609375 169.77734375 C41.00778564 168.10454346 41.00778564 168.10454346 39.99951172 166.39794922 C36.75770557 160.8888579 33.56544089 155.35144843 30.375 149.8125 C29.7464209 148.72243652 29.1178418 147.63237305 28.47021484 146.50927734 C24.12420831 138.96724627 19.806608 131.40930743 15.49658203 123.84667969 C11.02611572 116.01698154 6.48015167 108.23198563 1.92944336 100.44873047 C-1.07206582 95.31293521 -4.05951941 90.17097335 -7 85 C-10.72432369 78.45200605 -14.51659137 71.94422028 -18.3125 65.4375 C-18.92416016 64.38884766 -19.53582031 63.34019531 -20.16601562 62.25976562 C-23.318709 56.76080836 -23.318709 56.76080836 -26.81713867 51.48461914 C-28 49 -28 49 -27.36694336 46.50439453 C-26.91585205 45.67794434 -26.46476074 44.85149414 -26 44 C-25.55857666 43.18515137 -25.11715332 42.37030273 -24.66235352 41.53076172 C-24.15631592 40.67240723 -23.65027832 39.81405273 -23.12890625 38.9296875 C-22.27462036 37.47381226 -22.27462036 37.47381226 -21.40307617 35.98852539 C-20.49199097 34.44733032 -20.49199097 34.44733032 -19.5625 32.875 C-18.29913619 30.72546196 -17.03612016 28.57571948 -15.7734375 26.42578125 C-14.82549316 24.81437256 -14.82549316 24.81437256 -13.85839844 23.17041016 C-10.63672906 17.67427268 -7.46062914 12.15177581 -4.28930664 6.62646484 C-1.10846168 1.10846168 -1.10846168 1.10846168 0 0 Z " fill="#FF8D00" transform="translate(733,458)"/>
<path d="M0 0 C4.33744995 1.44581665 5.29374759 4.71836697 7.3125 8.5625 C8.20449223 10.21491478 9.09916808 11.86588288 9.99609375 13.515625 C10.47804199 14.40314453 10.95999023 15.29066406 11.45654297 16.20507812 C14.17392903 21.12577342 17.02836748 25.96580552 19.875 30.8125 C24.35409626 38.45595103 28.80200908 46.11493021 33.1875 53.8125 C39.80630331 65.42580713 46.48888614 77.001124 53.23828125 88.5390625 C60.30929882 100.62897307 67.3083409 112.75672586 74.24658203 124.9230957 C78.85875279 133.00985367 83.50349821 141.07676581 88.17578125 149.12890625 C91.54412296 154.93417839 94.89685659 160.74844016 98.25 166.5625 C98.88429932 167.66223145 99.51859863 168.76196289 100.17211914 169.89501953 C101.46830297 172.14239157 102.76444525 174.38978758 104.06054688 176.63720703 C107.83013763 183.17325223 111.6008065 189.70867562 115.37182617 196.24389648 C118.51136246 201.68502326 121.64957814 207.12690363 124.78515625 212.5703125 C130.830552 223.06232165 136.89119551 233.54476171 143 244 C147.76578932 252.15802642 152.51583082 260.32493283 157.2421875 268.50585938 C158.22842781 270.21266673 159.21576422 271.91884057 160.203125 273.625 C160.80125 274.66140625 161.399375 275.6978125 162.015625 276.765625 C162.54446289 277.68118164 163.07330078 278.59673828 163.61816406 279.54003906 C164.30217285 280.75771973 164.30217285 280.75771973 165 282 C165.41217773 282.66483398 165.82435547 283.32966797 166.24902344 284.01464844 C167.2854332 286.75459778 166.86595986 288.21769578 166 291 C165.08315607 292.901863 164.09241133 294.76897958 163.05078125 296.60546875 C162.44943359 297.67216797 161.84808594 298.73886719 161.22851562 299.83789062 C160.59623047 300.94326172 159.96394531 302.04863281 159.3125 303.1875 C158.69955078 304.27353516 158.08660156 305.35957031 157.45507812 306.47851562 C154.2190177 312.19223844 150.90783658 317.852699 147.51245117 323.47290039 C144.61152542 328.31995164 141.81411944 333.22722835 139 338.125 C137.68011357 340.41691372 136.35993279 342.70865357 135.0390625 345 C134.70556793 345.57855743 134.37207336 346.15711487 134.0284729 346.75320435 C130.49193488 352.88564256 126.93774206 359.00774894 123.375 365.125 C122.8078125 366.10098145 122.240625 367.07696289 121.65625 368.08251953 C121.11742187 369.00661621 120.57859375 369.93071289 120.0234375 370.8828125 C119.55856934 371.68090332 119.09370117 372.47899414 118.61474609 373.30126953 C118.08187988 374.19185059 117.54901367 375.08243164 117 376 C116.71071908 376.65227727 116.42143816 377.30455454 116.12339115 377.97659779 C114.51510495 381.20911914 113.31949265 383.55058903 109.78890228 384.75308609 C106.9464068 385.05189657 104.19626852 385.09238384 101.33813477 385.05102539 C100.26439606 385.06665024 99.19065735 385.08227509 98.0843811 385.09837341 C94.53570524 385.13867607 90.9901996 385.12024178 87.44140625 385.09765625 C84.97427072 385.10558494 82.50714144 385.11574277 80.0400238 385.1280365 C74.86897715 385.14434617 69.69903366 385.13119397 64.52807617 385.09790039 C57.90147976 385.05793335 51.27789862 385.09452091 44.65153599 385.15367985 C39.55639869 385.19010353 34.46198044 385.18406644 29.36677361 385.16540337 C26.92393063 385.16191586 24.48102874 385.17206299 22.03830147 385.19609261 C18.62080321 385.22369313 15.20847007 385.19368746 11.79125977 385.14868164 C10.78275467 385.16847076 9.77424957 385.18825989 8.73518372 385.20864868 C2.01653222 385.03666967 2.01653222 385.03666967 -0.9346981 382.02697563 C-2.478061 379.74212988 -3.77087413 377.46558817 -5 375 C-5.59651367 373.99453125 -6.19302734 372.9890625 -6.80761719 371.953125 C-7.5447998 370.61507812 -7.5447998 370.61507812 -8.296875 369.25 C-8.85785889 368.23824707 -9.41884277 367.22649414 -9.99682617 366.18408203 C-10.57537354 365.13333496 -11.1539209 364.08258789 -11.75 363 C-16.96598897 353.60504709 -22.30264575 344.30130979 -27.78466797 335.06005859 C-29.96372479 331.36643034 -32.10553128 327.65128073 -34.25 323.9375 C-37.86650676 317.67647114 -41.50044235 311.42600542 -45.14941406 305.18383789 C-50.14060958 296.64551339 -55.10626458 288.0945972 -60 279.5 C-64.49894584 271.59993355 -69.04678833 263.72940627 -73.625 255.875 C-74.22957031 254.83666016 -74.83414063 253.79832031 -75.45703125 252.72851562 C-76.02035156 251.76365234 -76.58367187 250.79878906 -77.1640625 249.8046875 C-77.91357178 248.52053955 -77.91357178 248.52053955 -78.67822266 247.21044922 C-79.73531047 245.44264851 -80.85745844 243.71381234 -82 242 C-82.41507812 242.7321875 -82.83015625 243.464375 -83.2578125 244.21875 C-87.68030324 251.99049105 -92.17019436 259.7204879 -96.6875 267.4375 C-101.90351606 276.35371905 -107.02481902 285.31803857 -112.08666992 294.32250977 C-116.72022653 302.54730241 -121.46461596 310.70498978 -126.24414062 318.84570312 C-129.57364491 324.522684 -132.835216 330.22944859 -136 336 C-136.66 336 -137.32 336 -138 336 C-138.48073975 335.14341797 -138.48073975 335.14341797 -138.97119141 334.26953125 C-140.5204491 331.51188543 -142.07275037 328.75596276 -143.625 326 C-144.19879395 324.97793457 -144.77258789 323.95586914 -145.36376953 322.90283203 C-148.50853615 317.32411966 -151.70722104 311.78815004 -155.015625 306.3046875 C-155.98314697 304.69013672 -155.98314697 304.69013672 -156.97021484 303.04296875 C-158.22410501 300.95754465 -159.489789 298.87915916 -160.76806641 296.80859375 C-161.33702637 295.85855469 -161.90598633 294.90851563 -162.4921875 293.9296875 C-163.25571533 292.68034424 -163.25571533 292.68034424 -164.03466797 291.40576172 C-165.23412006 288.4165354 -164.98407486 287.03672042 -164 284 C-163.00708008 281.88549805 -163.00708008 281.88549805 -161.76953125 279.76171875 C-161.30353516 278.95412109 -160.83753906 278.14652344 -160.35742188 277.31445312 C-159.59268555 276.01411133 -159.59268555 276.01411133 -158.8125 274.6875 C-158.01489258 273.31174805 -158.01489258 273.31174805 -157.20117188 271.90820312 C-155.47470505 268.93450939 -153.73802502 265.96695095 -152 263 C-150.83685503 261.00673477 -149.67409461 259.01324509 -148.51171875 257.01953125 C-146.74643229 253.99279845 -144.98041699 250.96650514 -143.21191406 247.94165039 C-139.4607092 241.52226974 -135.74396388 235.08461134 -132.0625 228.625 C-122.23133723 211.37517923 -112.29003182 194.18970075 -102.27441406 177.04638672 C-92.85402906 160.91192315 -83.54076271 144.71575985 -74.28125 128.48852539 C-67.62014699 116.82146845 -60.89368058 105.19331956 -54.0625 93.625 C-49.88373664 86.54694007 -45.8004114 79.41704242 -41.73364258 72.27416992 C-37.94889744 65.63637357 -34.11009538 59.03171623 -30.25 52.4375 C-24.29475956 42.26107693 -18.427015 32.0368509 -12.59277344 21.79077148 C-8.43968697 14.50047294 -4.24225522 7.23876233 0 0 Z M0 98 C-0.31525635 98.56058105 -0.6305127 99.12116211 -0.95532227 99.69873047 C-9.30168102 114.52904972 -17.75309965 129.29596126 -26.27783203 144.02441406 C-27.82059884 146.69002816 -29.36183006 149.3565209 -30.90234375 152.0234375 C-31.34787598 152.79381348 -31.7934082 153.56418945 -32.25244141 154.35791016 C-33.11700195 155.85405426 -33.97999175 157.35110727 -34.84130859 158.84912109 C-37.45060566 163.37457486 -40.11801504 167.85985083 -42.82421875 172.328125 C-43.80056274 173.95693604 -43.80056274 173.95693604 -44.79663086 175.61865234 C-46.0758648 177.75118856 -47.36664889 179.87684863 -48.67016602 181.99462891 C-49.24822998 182.96319824 -49.82629395 183.93176758 -50.421875 184.9296875 C-50.94362305 185.78804199 -51.46537109 186.64639648 -52.00292969 187.53076172 C-53.23325068 190.57764383 -53.02162781 191.90533681 -52 195 C-50.88189438 197.42637207 -50.88189438 197.42637207 -49.4453125 199.8515625 C-48.9188916 200.77493408 -48.3924707 201.69830566 -47.85009766 202.6496582 C-47.28081543 203.631521 -46.7115332 204.61338379 -46.125 205.625 C-45.53638184 206.65262451 -44.94776367 207.68024902 -44.34130859 208.73901367 C-42.56812173 211.8302519 -40.78536021 214.91578007 -39 218 C-38.07276174 219.60798359 -37.14566483 221.2160487 -36.21875 222.82421875 C-34.46562956 225.86081516 -32.70713826 228.89422807 -30.9453125 231.92578125 C-27.44957346 237.94246271 -23.97551575 243.97162171 -20.5 250 C-15.73991917 258.25425869 -10.97408285 266.50510858 -6.1965332 274.74926758 C-2.99066584 280.28336602 0.20463436 285.82349964 3.39770508 291.36499023 C9.18175688 301.40134889 14.98111128 311.42855885 20.8125 321.4375 C21.40522705 322.45610107 21.9979541 323.47470215 22.60864258 324.52416992 C23.43078247 325.93339722 23.43078247 325.93339722 24.26953125 327.37109375 C24.75010986 328.19536865 25.23068848 329.01964355 25.72583008 329.86889648 C26.76699718 331.61029285 27.87456125 333.31184188 29 335 C31.31154718 335.6025347 31.31154718 335.6025347 34.05371094 335.72143555 C35.10986603 335.79759094 36.16602112 335.87374634 37.25418091 335.95220947 C63.33313925 338.96618867 63.33313925 338.96618867 87.76074219 333.00195312 C92.9965925 327.75605319 94.9436032 321.4037797 96.86572266 314.38330078 C98.45607174 309.63963792 101.08501699 305.91439344 103.875 301.796875 C109.38729079 293.64208821 109.38729079 293.64208821 110.70703125 284.22265625 C109.19996826 281.09317484 107.58675802 278.63678422 105.44628906 275.93115234 C103.21698327 272.95447969 101.44136413 269.74044422 99.59179688 266.51879883 C97.9541266 263.67020702 96.27501686 260.84962805 94.5859375 258.03125 C90.87137618 251.80563707 87.24076431 245.53338649 83.625 239.25 C83.00133545 238.16662354 82.3776709 237.08324707 81.73510742 235.96704102 C80.46325379 233.75700158 79.19168943 231.54679565 77.92041016 229.33642578 C75.99545705 225.99210731 74.06677999 222.64996653 72.13671875 219.30859375 C66.38081862 209.34361384 60.63478853 199.37362218 54.9375 189.375 C49.99291503 180.6987318 44.96988701 172.06959923 39.92944336 163.44873047 C36.92793418 158.31293521 33.94048059 153.17097335 31 148 C26.84880609 140.70207665 22.61275461 133.45406859 18.37011719 126.20898438 C15.45797936 121.23244696 12.56352278 116.2480919 9.72265625 111.23046875 C9.21903564 110.34512451 8.71541504 109.45978027 8.1965332 108.54760742 C7.25006411 106.88070363 6.3095446 105.21040407 5.37573242 103.53637695 C4.3061712 101.65809795 3.16098931 99.82318322 2 98 C1.34 98 0.68 98 0 98 Z " fill="#FF7F00" transform="translate(539,123)"/>
<path d="M0 0 C7 0 7 0 9.37890625 1.95703125 C10.09949219 2.89933594 10.82007813 3.84164062 11.5625 4.8125 C12.1807666 5.60406494 12.1807666 5.60406494 12.81152344 6.41162109 C14.23575267 8.25477197 15.61972576 10.12372552 17 12 C17.52513184 12.70721191 18.05026367 13.41442383 18.59130859 14.14306641 C20.91108596 17.26978182 23.2228291 20.40199779 25.51660156 23.54785156 C30.422276 30.27143261 35.49508306 36.85166044 40.64550781 43.38916016 C41.20206055 44.09733887 41.75861328 44.80551758 42.33203125 45.53515625 C43.07030151 46.46920288 43.07030151 46.46920288 43.82348633 47.42211914 C45 49 45 49 46 51 C46.33 34.17 46.66 17.34 47 0 C49.31 0 51.62 0 54 0 C54 21.78 54 43.56 54 66 C47 66 47 66 45.26586914 64.77270508 C44.85973389 64.19415771 44.45359863 63.61561035 44.03515625 63.01953125 C43.55344971 62.36049805 43.07174316 61.70146484 42.57543945 61.02246094 C42.07616943 60.29317383 41.57689941 59.56388672 41.0625 58.8125 C39.93318464 57.25065602 38.80293239 55.68948915 37.671875 54.12890625 C37.07955078 53.29633301 36.48722656 52.46375977 35.87695312 51.60595703 C32.61806492 47.08132478 29.20587576 42.67409096 25.8125 38.25 C24.54772874 36.58888294 23.28340246 34.92742697 22.01953125 33.265625 C17.36243053 27.1647778 12.67966111 21.08355945 8 15 C7.67 31.83 7.34 48.66 7 66 C4.69 66 2.38 66 0 66 C0 44.22 0 22.44 0 0 Z " fill="#FF6C00" transform="translate(309,860)"/>
<path d="M0 0 C8.19661089 5.19067041 12.59216096 11.18419176 16.06640625 20.30859375 C18.33128631 31.14181525 17.33044108 41.58003539 11.60546875 51.171875 C6.29792369 58.54047182 -0.84369146 62.43477766 -9.37109375 65.05859375 C-21.26617585 66.21908956 -31.28198485 64.77463171 -40.93359375 57.30859375 C-48.75074926 49.50610458 -51.19327918 41.65110196 -51.37109375 30.87109375 C-51.2922597 20.77267096 -48.82429587 13.49948061 -41.79296875 6.0625 C-31.12482331 -4.00051955 -13.40159002 -6.73575568 0 0 Z M-35.04296875 10.21875 C-41.07745174 16.46245777 -43.39267101 22.25998151 -44.30859375 30.80859375 C-43.34897069 39.76507567 -40.55623431 47.00900882 -33.93359375 53.30859375 C-28.23204741 57.257268 -21.93597412 59.73856447 -14.93359375 59.30859375 C-5.98629528 57.48049124 0.87057698 52.77280867 6.06640625 45.30859375 C10.04613231 38.40742084 10.293136 30.18085937 8.375 22.5625 C5.52049295 14.7155915 1.5357332 9.37865636 -5.87109375 5.43359375 C-16.58291087 0.58205326 -26.32172617 2.32118033 -35.04296875 10.21875 Z " fill="#FF8100" transform="translate(596.93359375,861.69140625)"/>
<path d="M0 0 C0.85142578 -0.02449219 1.70285156 -0.04898438 2.58007812 -0.07421875 C11.83869678 -0.11652775 19.15042041 3.51076701 26.1875 9.375 C26.9453125 11.41796875 26.9453125 11.41796875 27.1875 13.375 C26.0625 15.1875 26.0625 15.1875 24.1875 16.375 C21.41015133 16.45214857 19.79137262 15.90457416 17.6953125 14.06640625 C17.15648437 13.54949219 16.61765625 13.03257812 16.0625 12.5 C10.99111178 7.95550926 5.12021766 6.2937455 -1.6484375 6.43359375 C-9.1677148 7.45512022 -15.46372554 10.41214709 -20.41015625 16.265625 C-24.74011951 22.6785152 -26.47995616 29.63250853 -25.8125 37.375 C-24.25754768 45.33269718 -21.3750012 52.20725305 -14.55078125 56.9453125 C-5.63442107 61.8444115 1.98913148 62.15473446 11.64453125 59.359375 C12.90330078 58.87210938 12.90330078 58.87210938 14.1875 58.375 C15.10273437 58.02308594 16.01796875 57.67117188 16.9609375 57.30859375 C19.51490155 55.0906776 19.56746977 54.5861921 19.89453125 51.36328125 C19.95867601 49.80561123 19.98788121 48.2464431 20 46.6875 C20.061875 43.944375 20.12375 41.20125 20.1875 38.375 C13.5875 38.375 6.9875 38.375 0.1875 38.375 C0.1875 36.395 0.1875 34.415 0.1875 32.375 C9.4275 32.375 18.6675 32.375 28.1875 32.375 C28.435 38.624375 28.435 38.624375 28.6875 45 C28.76033203 46.30275879 28.83316406 47.60551758 28.90820312 48.94775391 C29.06784062 57.26306524 29.06784062 57.26306524 26.51611328 60.48608398 C17.72272368 67.22768268 7.05213164 69.2001619 -3.8125 68.375 C-13.74709833 66.84660026 -21.75529857 63.47663019 -28.1875 55.5625 C-34.42144361 46.31548364 -34.98433921 36.24901839 -33.8125 25.375 C-31.89705128 16.95568301 -27.07760685 9.25559475 -19.8125 4.5 C-13.36916088 0.66084378 -7.33928769 0.01096234 0 0 Z " fill="#FF9000" transform="translate(763.8125,858.625)"/>
<path d="M0 0 C0.85142578 -0.02449219 1.70285156 -0.04898438 2.58007812 -0.07421875 C11.83869678 -0.11652775 19.15042041 3.51076701 26.1875 9.375 C26.9453125 11.41796875 26.9453125 11.41796875 27.1875 13.375 C26.0625 15.1875 26.0625 15.1875 24.1875 16.375 C21.41015133 16.45214857 19.79137262 15.90457416 17.6953125 14.06640625 C17.15648437 13.54949219 16.61765625 13.03257812 16.0625 12.5 C10.99111178 7.95550926 5.12021766 6.2937455 -1.6484375 6.43359375 C-9.1677148 7.45512022 -15.46372554 10.41214709 -20.41015625 16.265625 C-24.74011951 22.6785152 -26.47995616 29.63250853 -25.8125 37.375 C-24.25754768 45.33269718 -21.3750012 52.20725305 -14.55078125 56.9453125 C-5.63442107 61.8444115 1.98913148 62.15473446 11.64453125 59.359375 C12.90330078 58.87210938 12.90330078 58.87210938 14.1875 58.375 C15.10273438 58.02308594 16.01796875 57.67117188 16.9609375 57.30859375 C19.51490155 55.0906776 19.56746977 54.5861921 19.89453125 51.36328125 C19.95867601 49.80561123 19.98788121 48.2464431 20 46.6875 C20.061875 43.944375 20.12375 41.20125 20.1875 38.375 C13.5875 38.375 6.9875 38.375 0.1875 38.375 C0.1875 36.395 0.1875 34.415 0.1875 32.375 C9.4275 32.375 18.6675 32.375 28.1875 32.375 C28.435 38.624375 28.435 38.624375 28.6875 45 C28.76033203 46.30275879 28.83316406 47.60551758 28.90820312 48.94775391 C29.06784062 57.26306524 29.06784062 57.26306524 26.51611328 60.48608398 C17.72272368 67.22768268 7.05213164 69.2001619 -3.8125 68.375 C-13.74709833 66.84660026 -21.75529857 63.47663019 -28.1875 55.5625 C-34.42144361 46.31548364 -34.98433921 36.24901839 -33.8125 25.375 C-31.89705128 16.95568301 -27.07760685 9.25559475 -19.8125 4.5 C-13.36916088 0.66084378 -7.33928769 0.01096234 0 0 Z " fill="#FF7300" transform="translate(408.8125,858.625)"/>
<path d="M0 0 C34.62781049 0 34.62781049 0 44.24609375 9.07421875 C51.63879188 17.19136836 53.47566574 25.4047299 53.31640625 36.234375 C52.8792709 41.43682536 51.51879725 45.45953654 49 50 C48.4740625 50.96679688 48.4740625 50.96679688 47.9375 51.953125 C43.77242798 58.60567059 37.26836758 62.57197138 29.875 64.875 C20.04040842 66.4842968 9.9653915 66 0 66 C0 44.22 0 22.44 0 0 Z M7 5 C7 23.15 7 41.3 7 60 C24.33849188 60.21450612 24.33849188 60.21450612 38.5 51.82421875 C43.43320587 45.82472098 46.25416442 38.79437541 46 31 C45.00487884 22.91840995 41.17367935 16.31223572 35 11 C25.70609936 4.86251845 18.5330127 5 7 5 Z " fill="#FF8900" transform="translate(647,860)"/>
<path d="M0 0 C25 0 25 0 31 3 C35.1784783 7.1784783 36.95034208 11.52394556 37.03515625 17.4609375 C36.69575723 22.97410204 35.87123527 26.83842208 32 31 C29.09824628 32.88613992 26.11498151 34.49575679 23 36 C24.06689504 37.71089607 25.13393912 39.42169936 26.20166016 41.13208008 C27.11224866 42.59108007 28.02207406 44.05055659 28.93115234 45.51049805 C31.00047785 48.8279474 33.0763516 52.13794609 35.22265625 55.40625 C35.85042969 56.3653125 36.47820312 57.324375 37.125 58.3125 C37.68445313 59.15425781 38.24390625 59.99601563 38.8203125 60.86328125 C40 63 40 63 40 66 C37.0329213 66.33281518 34.88204781 66.56172654 32 66 C29.83399192 63.72234201 28.57303665 62.03940979 27.0625 59.375 C26.65209473 58.70509033 26.24168945 58.03518066 25.81884766 57.3449707 C24.96158253 55.9452303 24.11502001 54.53888374 23.27880859 53.12646484 C22.02101273 51.03494099 20.70833399 48.9933402 19.36328125 46.95703125 C18.73570923 46.00594482 18.73570923 46.00594482 18.09545898 45.03564453 C17.49133179 44.12081299 17.49133179 44.12081299 16.875 43.1875 C13 37.3146405 13 37.3146405 13 35 C11.02 35 9.04 35 7 35 C7 45.23 7 55.46 7 66 C4.69 66 2.38 66 0 66 C0 44.22 0 22.44 0 0 Z M7 5 C7 13.25 7 21.5 7 30 C17.36299987 30.25397132 17.36299987 30.25397132 25.9375 25.5 C29.22391395 21.51646794 29.35021161 19.1656212 29 14 C27.33428298 10.33542256 25.47424147 8.04367145 22 6 C17.00900969 4.38526784 12.41506839 5 7 5 Z " fill="#FF5F00" transform="translate(179,860)"/>
<path d="M0 0 C1.98 0 3.96 0 6 0 C9.26984269 7.99329342 12.53027043 15.99034273 15.77878571 23.99232769 C17.28754141 27.7079631 18.79949146 31.42223014 20.31884766 35.13354492 C21.78534163 38.71607252 23.24330492 42.30196269 24.69544983 45.89032936 C25.25059897 47.25786996 25.80879644 48.62417723 26.37010193 49.9892025 C27.15656499 51.90326843 27.93201559 53.8214569 28.70507812 55.7409668 C29.14920044 56.83128708 29.59332275 57.92160736 30.05090332 59.04496765 C30.96938581 61.90468207 31.20242608 64.02384135 31 67 C28.69 67 26.38 67 24 67 C23.67386719 66.21496094 23.34773437 65.42992187 23.01171875 64.62109375 C22.57472656 63.57050781 22.13773438 62.51992188 21.6875 61.4375 C21.25824219 60.40496094 20.82898438 59.37242187 20.38671875 58.30859375 C18.94320337 54.86448805 17.47104471 51.43243765 16 48 C7.42 48 -1.16 48 -10 48 C-12.64 54.27 -15.28 60.54 -18 67 C-20.64 67 -23.28 67 -26 67 C-25.34256486 63.08296064 -24.17789542 59.63879287 -22.69921875 55.95629883 C-22.22202393 54.76188675 -21.7448291 53.56747467 -21.25317383 52.33686829 C-20.73139975 51.04354199 -20.20950563 49.75026411 -19.6875 48.45703125 C-19.15288679 47.12389503 -18.61863101 45.79061542 -18.0847168 44.4571991 C-16.68172592 40.95641367 -15.27342265 37.45778838 -13.86413574 33.95953369 C-12.71276777 31.09884212 -11.56526722 28.2366071 -10.41795349 25.37428761 C-9.05081468 21.96382834 -7.68187645 18.55409258 -6.3125 15.14453125 C-6.05093109 14.49306437 -5.78936218 13.84159748 -5.51986694 13.17038918 C-4.78114351 11.33170791 -4.04099696 9.49359859 -3.30078125 7.65551758 C-2.66910034 6.08596062 -2.66910034 6.08596062 -2.0246582 4.48469543 C-1.39935192 2.96838916 -0.7335111 1.4670222 0 0 Z M2 15 C0.33056624 19.1447245 -1.33508389 23.29095894 -3 27.4375 C-3.47695313 28.62150391 -3.95390625 29.80550781 -4.4453125 31.02539062 C-4.89648438 32.15009766 -5.34765625 33.27480469 -5.8125 34.43359375 C-6.23144531 35.47572021 -6.65039062 36.51784668 -7.08203125 37.59155273 C-8.05935881 39.72616177 -8.05935881 39.72616177 -8 41 C-0.74 41 6.52 41 14 41 C10.7 32.42 7.4 23.84 4 15 C3.34 15 2.68 15 2 15 Z " fill="#FF9900" transform="translate(889,859)"/>
<path d="M0 0 C1.98 0 3.96 0 6 0 C9.26984269 7.99329342 12.53027043 15.99034273 15.77878571 23.99232769 C17.28754141 27.7079631 18.79949146 31.42223014 20.31884766 35.13354492 C21.78534163 38.71607252 23.24330492 42.30196269 24.69544983 45.89032936 C25.25059897 47.25786996 25.80879644 48.62417723 26.37010193 49.9892025 C27.15656499 51.90326843 27.93201559 53.8214569 28.70507812 55.7409668 C29.14920044 56.83128708 29.59332275 57.92160736 30.05090332 59.04496765 C30.96938581 61.90468207 31.20242608 64.02384135 31 67 C28.69 67 26.38 67 24 67 C23.67386719 66.21496094 23.34773438 65.42992187 23.01171875 64.62109375 C22.57472656 63.57050781 22.13773437 62.51992188 21.6875 61.4375 C21.25824219 60.40496094 20.82898438 59.37242187 20.38671875 58.30859375 C18.94320337 54.86448805 17.47104471 51.43243765 16 48 C7.42 48 -1.16 48 -10 48 C-12.64 54.27 -15.28 60.54 -18 67 C-20.64 67 -23.28 67 -26 67 C-25.34256486 63.08296064 -24.17789542 59.63879287 -22.69921875 55.95629883 C-22.22202393 54.76188675 -21.7448291 53.56747467 -21.25317383 52.33686829 C-20.73139975 51.04354199 -20.20950563 49.75026411 -19.6875 48.45703125 C-19.15288679 47.12389503 -18.61863101 45.79061542 -18.0847168 44.4571991 C-16.68172592 40.95641367 -15.27342265 37.45778838 -13.86413574 33.95953369 C-12.71276777 31.09884212 -11.56526722 28.2366071 -10.41795349 25.37428761 C-9.05081468 21.96382834 -7.68187645 18.55409258 -6.3125 15.14453125 C-6.05093109 14.49306437 -5.78936218 13.84159748 -5.51986694 13.17038918 C-4.78114351 11.33170791 -4.04099696 9.49359859 -3.30078125 7.65551758 C-2.66910034 6.08596062 -2.66910034 6.08596062 -2.0246582 4.48469543 C-1.39935192 2.96838916 -0.7335111 1.4670222 0 0 Z M2 15 C0.33056624 19.1447245 -1.33508389 23.29095894 -3 27.4375 C-3.47695313 28.62150391 -3.95390625 29.80550781 -4.4453125 31.02539062 C-4.89648438 32.15009766 -5.34765625 33.27480469 -5.8125 34.43359375 C-6.23144531 35.47572021 -6.65039062 36.51784668 -7.08203125 37.59155273 C-8.05935881 39.72616177 -8.05935881 39.72616177 -8 41 C-0.74 41 6.52 41 14 41 C10.7 32.42 7.4 23.84 4 15 C3.34 15 2.68 15 2 15 Z " fill="#FF6600" transform="translate(270,859)"/>
<path d="M0 0 C2.31 0 4.62 0 7 0 C7.01981934 1.18964355 7.03963867 2.37928711 7.06005859 3.60498047 C7.13668608 8.05944389 7.22531087 12.51360471 7.31738281 16.96777344 C7.35543823 18.88795963 7.39032996 20.80821144 7.421875 22.72851562 C7.46803929 25.50414331 7.52594339 28.27932825 7.5859375 31.0546875 C7.59748871 31.8998996 7.60903992 32.74511169 7.62094116 33.61593628 C7.81855409 41.77215217 8.22703276 50.77127218 14 57 C18.7365945 59.92143697 23.44515056 60.52083741 28.890625 59.62890625 C32.53893976 58.54116796 34.48665506 56.81255267 37 54 C39.97146661 47.61701413 40.46547267 42.13958966 40.51171875 35.15625 C40.52966995 34.14655151 40.54762115 33.13685303 40.56611633 32.09655762 C40.61994099 28.89774651 40.65402571 25.69908223 40.6875 22.5 C40.72069763 20.32029219 40.75518953 18.14060369 40.79101562 15.9609375 C40.87565111 10.64075676 40.94411785 5.32055633 41 0 C43.31 0 45.62 0 48 0 C48.10188499 6.95584524 48.17166837 13.91149618 48.21972656 20.86791992 C48.23977282 23.23159985 48.26701719 25.59523061 48.30175781 27.95874023 C48.35058271 31.36714857 48.37303948 34.77489803 48.390625 38.18359375 C48.41127014 39.23083115 48.43191528 40.27806854 48.45318604 41.35704041 C48.45542 48.75388127 47.36058929 55.16441213 42.35357666 60.87913513 C37.15827598 65.92795772 31.5442037 67.03213803 24.5 67.25 C17.36870838 67.05361331 11.61906848 65.59741967 6 61 C-0.29598559 53.47979499 -0.29625846 44.44405671 -0.1953125 35.05859375 C-0.1924826 34.05031021 -0.18965271 33.04202667 -0.18673706 32.00318909 C-0.17563177 28.81450017 -0.15054545 25.62610259 -0.125 22.4375 C-0.11495772 20.26237388 -0.10583406 18.08724331 -0.09765625 15.91210938 C-0.07572416 10.6079752 -0.04234411 5.30400843 0 0 Z " fill="#FF7900" transform="translate(450,860)"/>
<path d="M0 0 C14.85 0 29.7 0 45 0 C45 1.65 45 3.3 45 5 C38.73 5 32.46 5 26 5 C26 25.13 26 45.26 26 66 C23.69 66 21.38 66 19 66 C19 45.87 19 25.74 19 5 C12.73 5 6.46 5 0 5 C0 3.35 0 1.7 0 0 Z " fill="#FF9600" transform="translate(822,860)"/>
<path d="M0 0 C14.85 0 29.7 0 45 0 C45 1.65 45 3.3 45 5 C38.73 5 32.46 5 26 5 C26 25.13 26 45.26 26 66 C23.69 66 21.38 66 19 66 C19 45.87 19 25.74 19 5 C12.73 5 6.46 5 0 5 C0 3.35 0 1.7 0 0 Z " fill="#FF5B00" transform="translate(125,860)"/>
<path d="M0 0 C2.31 0 4.62 0 7 0 C7 19.8 7 39.6 7 60 C14.59 60 22.18 60 30 60 C30 61.98 30 63.96 30 66 C20.1 66 10.2 66 0 66 C0 44.22 0 22.44 0 0 Z " fill="#FF9C00" transform="translate(929,860)"/>
<path d="M0 0 C2.31 0 4.62 0 7 0 C7 19.8 7 39.6 7 60 C14.59 60 22.18 60 30 60 C30 61.98 30 63.96 30 66 C20.1 66 10.2 66 0 66 C0 44.22 0 22.44 0 0 Z " fill="#FF7D00" transform="translate(514,860)"/>
<path d="M0 0 C2.31 0 4.62 0 7 0 C7 21.78 7 43.56 7 66 C4.69 66 2.38 66 0 66 C0 44.22 0 22.44 0 0 Z " fill="#FF9400" transform="translate(806,860)"/>
<path d="M0 0 C2.31 0 4.62 0 7 0 C7 21.78 7 43.56 7 66 C4.69 66 2.38 66 0 66 C0 44.22 0 22.44 0 0 Z " fill="#FF8C00" transform="translate(712,860)"/>
<path d="M0 0 C2.31 0 4.62 0 7 0 C7 21.78 7 43.56 7 66 C4.69 66 2.38 66 0 66 C0 44.22 0 22.44 0 0 Z " fill="#FF6200" transform="translate(229,860)"/>
</svg>
