<svg width="200" height="40" viewBox="0 0 200 40" fill="none" xmlns="http://www.w3.org/2000/svg">
<path d="M66.9121 19.2354V23.5215C66.9121 27.3529 64.889 29.2686 60.8428 29.2686C56.6891 29.2686 54.6123 27.0306 54.6123 22.5547V14.6807C54.6123 10.2048 56.6963 7.9668 60.8643 7.9668C62.8623 7.9668 64.3698 8.42513 65.3867 9.3418C66.4036 10.2585 66.9121 11.723 66.9121 13.7354V17.624H61.6807V13.252C61.6807 12.5645 61.4085 12.2171 60.8643 12.21C60.6136 12.21 60.4131 12.3031 60.2627 12.4893C60.1195 12.6755 60.0479 12.9297 60.0479 13.252V23.9834C60.0479 24.6709 60.3271 25.0146 60.8857 25.0146C61.4157 25.0146 61.6807 24.6709 61.6807 23.9834V19.2139L66.9121 19.2354ZM74.3779 7.9668C76.4906 7.9668 78.0697 8.51465 79.1152 9.61035C80.168 10.6989 80.6943 12.389 80.6943 14.6807V22.5547C80.6943 24.8392 80.168 26.5293 79.1152 27.625C78.0697 28.7207 76.4906 29.2686 74.3779 29.2686C70.21 29.2686 68.126 27.0306 68.126 22.5547V14.6807C68.126 10.2048 70.21 7.9668 74.3779 7.9668ZM75.2588 23.9834V13.252C75.2588 12.9297 75.18 12.6755 75.0225 12.4893C74.8721 12.3031 74.6715 12.21 74.4209 12.21C74.1559 12.21 73.9447 12.3031 73.7871 12.4893C73.6367 12.6755 73.5615 12.9297 73.5615 13.252V23.9834C73.5615 24.2913 73.6367 24.542 73.7871 24.7354C73.9447 24.9215 74.1488 25.0146 74.3994 25.0146C74.9723 25.0146 75.2588 24.6709 75.2588 23.9834ZM91.0928 21.2764L91.2969 18.043L92.1777 8.21387H99.7402V29H94.6592L94.6807 22.8662L94.9492 15.8193H94.6592L93.209 29H88.5898L87.2041 15.7764H86.9141L87.2041 22.8447V29H82.123V8.21387H89.707L90.5879 18.043L90.8135 21.2764H91.0928ZM108.345 23.5859H106.69V29H101.395V8.21387H108.345C110.063 8.21387 111.399 8.72233 112.352 9.73926C113.304 10.7562 113.78 12.1598 113.78 13.9502V17.5166C113.78 19.307 113.286 20.7679 112.298 21.8994C111.317 23.0238 109.999 23.5859 108.345 23.5859ZM107.217 19.1387C107.947 19.1387 108.316 18.6624 108.323 17.71V14.0361C108.323 13.098 107.954 12.6289 107.217 12.6289H106.69V19.1387H107.217ZM120.892 7.9668C123.004 7.9668 124.583 8.51465 125.629 9.61035C126.682 10.6989 127.208 12.389 127.208 14.6807V22.5547C127.208 24.8392 126.682 26.5293 125.629 27.625C124.583 28.7207 123.004 29.2686 120.892 29.2686C116.724 29.2686 114.64 27.0306 114.64 22.5547V14.6807C114.64 10.2048 116.724 7.9668 120.892 7.9668ZM121.772 23.9834V13.252C121.772 12.9297 121.694 12.6755 121.536 12.4893C121.386 12.3031 121.185 12.21 120.935 12.21C120.67 12.21 120.458 12.3031 120.301 12.4893C120.15 12.6755 120.075 12.9297 120.075 13.252V23.9834C120.075 24.2913 120.15 24.542 120.301 24.7354C120.458 24.9215 120.662 25.0146 120.913 25.0146C121.486 25.0146 121.772 24.6709 121.772 23.9834ZM136.403 17.8496L136.113 13.7354V8.21387H141.194V29H136.049L133.675 18.6553H133.428L133.718 22.791V29H128.637V8.21387H133.954L136.156 17.8496H136.403ZM148.112 24.5742H152.914V29H142.816V8.21387H152.828V12.6289H148.112V16.3027H152.56V20.5029H148.112V24.5742ZM162.056 17.8496L161.766 13.7354V8.21387H166.847V29H161.701L159.327 18.6553H159.08L159.37 22.791V29H154.289V8.21387H159.606L161.809 17.8496H162.056ZM179.114 8.21387V12.6074H176.096V29H170.8V12.6289H167.738V8.21387H179.114ZM191.865 15.0566H186.655V13.0479C186.655 12.432 186.376 12.124 185.817 12.124C185.567 12.124 185.37 12.2028 185.227 12.3604C185.09 12.5107 185.022 12.7113 185.022 12.9619V14.7451C185.022 15.0387 185.083 15.2607 185.205 15.4111C185.334 15.5544 185.538 15.6761 185.817 15.7764L188.299 16.3457C189.559 16.668 190.522 17.1872 191.188 17.9033C191.862 18.6123 192.198 19.7008 192.198 21.1689V23.5645C192.198 25.3548 191.647 26.7549 190.544 27.7646C189.441 28.7673 187.901 29.2686 185.925 29.2686C183.898 29.2686 182.369 28.8532 181.338 28.0225C180.307 27.1917 179.791 26.0065 179.791 24.4668V21.6738H185.065V24.0908C185.065 24.3701 185.137 24.6029 185.28 24.7891C185.431 24.9681 185.646 25.0576 185.925 25.0576C186.175 25.0576 186.376 24.9753 186.526 24.8105C186.684 24.6387 186.763 24.4274 186.763 24.1768V21.9424C186.763 21.3981 186.426 21.015 185.753 20.793L183.787 20.374C182.333 20.109 181.277 19.5791 180.618 18.7842C179.959 17.9821 179.63 16.8112 179.63 15.2715V13.3379C179.63 11.7122 180.16 10.4124 181.22 9.43848C182.287 8.45736 183.834 7.9668 185.86 7.9668C187.765 7.9668 189.241 8.38932 190.286 9.23438C191.339 10.0794 191.865 11.2503 191.865 12.7471V15.0566Z" fill="white"/>
<g clip-path="url(#clip0_42_2)">
<path d="M18.1295 16.6667C18.1627 16.6667 18.196 16.6667 18.2302 16.6667C18.2433 16.6906 18.2564 16.7144 18.2699 16.7391C18.5739 17.2926 18.887 17.8399 19.2096 18.383C19.443 18.7764 19.6729 19.1716 19.9015 19.5678C20.2683 20.2031 20.6374 20.8369 21.0112 21.4682C21.3467 22.0349 21.6792 22.6032 22.0082 23.1736C22.2406 23.5764 22.4751 23.978 22.7122 24.3781C22.9669 24.8077 23.2181 25.2391 23.4676 25.6716C23.7465 26.1551 24.0281 26.6369 24.3125 27.1172C24.5293 27.4836 24.7449 27.8507 24.9595 28.2183C24.9912 28.2725 25.0228 28.3266 25.0554 28.3825C25.2015 28.6328 25.3471 28.8834 25.4917 29.1346C25.5169 29.1784 25.5421 29.2223 25.5681 29.2674C25.6171 29.3526 25.666 29.4378 25.7149 29.523C25.8424 29.7443 25.9732 29.9629 26.1088 30.1794C26.1371 30.2249 26.1655 30.2704 26.1947 30.3173C26.2492 30.4044 26.3042 30.4911 26.3599 30.5775C26.3842 30.6163 26.4085 30.6551 26.4335 30.6952C26.4553 30.7291 26.477 30.7631 26.4994 30.7982C26.5513 30.9239 26.5389 30.9687 26.4892 31.0945C26.4408 31.1902 26.3896 31.2846 26.3368 31.3781C26.3054 31.4337 26.2741 31.4893 26.2418 31.5466C26.2078 31.6063 26.1738 31.666 26.1398 31.7257C26.105 31.7872 26.0702 31.8487 26.0354 31.9102C25.7952 32.3338 25.5491 32.7537 25.2978 33.1709C25.1607 33.3995 25.0257 33.6293 24.8903 33.8588C24.8609 33.9086 24.8315 33.9584 24.8012 34.0097C24.6423 34.2789 24.4836 34.5482 24.3251 34.8177C24.2927 34.8727 24.2604 34.9277 24.227 34.9843C24.1644 35.0906 24.1019 35.197 24.0394 35.3034C24.0114 35.351 23.9834 35.3985 23.9545 35.4476C23.9297 35.4897 23.9049 35.5319 23.8794 35.5753C23.8201 35.6716 23.8201 35.6716 23.7698 35.7214C23.6805 35.7262 23.5911 35.7275 23.5017 35.7275C23.4139 35.7277 23.4139 35.7277 23.3244 35.7278C23.2593 35.7277 23.1942 35.7275 23.1271 35.7274C23.0579 35.7274 22.9887 35.7274 22.9194 35.7275C22.7283 35.7276 22.5373 35.7274 22.3462 35.7272C22.1404 35.727 21.9347 35.727 21.729 35.7271C21.3722 35.7271 21.0155 35.7269 20.6588 35.7267C20.143 35.7262 19.6272 35.7261 19.1114 35.7261C18.2746 35.7259 17.4379 35.7256 16.6012 35.7251C15.7881 35.7247 14.9751 35.7243 14.1621 35.7241C14.112 35.7241 14.0619 35.7241 14.0103 35.7241C13.7591 35.724 13.5079 35.724 13.2567 35.7239C11.1711 35.7234 9.08555 35.7225 7 35.7214C7.04819 35.634 7.09639 35.5467 7.14459 35.4594C7.17143 35.4107 7.19827 35.3621 7.22592 35.312C7.53256 34.7576 7.85302 34.2114 8.17608 33.6662C8.40772 33.2747 8.63611 32.8815 8.86331 32.4876C9.14233 32.0038 9.42412 31.5218 9.70863 31.0412C10.2057 30.2013 10.6958 29.3575 11.1837 28.5123C11.4446 28.0605 11.7085 27.6104 11.9744 27.1614C12.419 26.4103 12.8585 25.6562 13.295 24.9005C13.7893 24.0446 14.2887 23.1915 14.7919 22.3406C15.2616 21.546 15.7261 20.7483 16.1876 19.9491C16.4845 19.4353 16.7841 18.923 17.0838 18.4108C17.1659 18.2703 17.2478 18.1297 17.3296 17.9892C17.536 17.635 17.7431 17.2812 17.9564 16.931C17.9876 16.8795 18.0188 16.828 18.051 16.7749C18.0769 16.7392 18.1028 16.7035 18.1295 16.6667ZM18.1295 21.4925C18.0872 21.5687 18.0872 21.5687 18.0441 21.6465C17.7663 22.1451 17.4798 22.6383 17.1886 23.1294C16.9966 23.4533 16.8066 23.7782 16.6187 24.1045C16.4041 24.477 16.1864 24.8477 15.9672 25.2177C15.7035 25.6625 15.4451 26.11 15.1893 26.5593C15.01 26.8736 14.8271 27.1855 14.641 27.4958C14.4791 27.7662 14.321 28.0386 14.1637 28.3116C13.9466 28.6881 13.7272 29.0631 13.5058 29.4372C12.9522 30.373 12.4051 31.3126 11.8618 32.2543C11.8305 32.3086 11.7991 32.3628 11.7669 32.4188C11.7398 32.4658 11.7127 32.5128 11.6847 32.5612C11.5344 32.8193 11.3821 33.0762 11.2302 33.3333C14.9029 33.3333 18.5757 33.3333 22.3597 33.3333C22.5591 32.9721 22.7586 32.6109 22.964 32.2388C23.1417 31.9433 23.3194 31.6483 23.5028 31.3563C23.5265 31.3171 23.5502 31.2779 23.5746 31.2376C23.5945 31.2056 23.6144 31.1737 23.6348 31.1408C23.6819 31.0087 23.6546 30.9308 23.6187 30.796C23.5617 30.6777 23.5617 30.6777 23.4879 30.5595C23.4604 30.5136 23.4329 30.4677 23.4046 30.4205C23.3745 30.371 23.3444 30.3215 23.3134 30.2705C23.2487 30.1627 23.1842 30.0548 23.1196 29.9469C23.0858 29.8905 23.052 29.8341 23.0171 29.7759C22.8624 29.5167 22.712 29.255 22.5614 28.9934C22.2661 28.4804 21.9675 27.9693 21.6659 27.4599C21.1966 26.667 20.7333 25.8707 20.2725 25.0729C19.7945 24.2458 19.3113 23.4217 18.8249 22.5994C18.6075 22.2318 18.3924 21.8629 18.1799 21.4925C18.1632 21.4925 18.1466 21.4925 18.1295 21.4925Z" fill="#FF6A00"/>
<path d="M37.6187 16.6667C37.6519 16.6667 37.6852 16.6667 37.7194 16.6667C37.7376 16.6997 37.7557 16.7328 37.7745 16.7669C37.9589 17.102 38.1463 17.4354 38.3363 17.7674C38.365 17.8174 38.3936 17.8675 38.4231 17.919C38.6063 18.2383 38.7924 18.5558 38.9816 18.8716C39.4641 19.6777 39.9326 20.492 40.4024 21.3053C40.651 21.7355 40.9009 22.1647 41.1525 22.5931C41.291 22.8289 41.4288 23.065 41.5665 23.3012C41.844 23.777 42.1224 24.2523 42.4029 24.7264C42.9018 25.5701 43.3956 26.4167 43.8858 27.2654C44.3276 28.0299 44.7735 28.7921 45.223 29.5522C45.7268 30.4041 46.2253 31.259 46.7202 32.116C46.9022 32.431 47.0856 32.7452 47.2699 33.0589C47.4047 33.2883 47.5388 33.518 47.6724 33.7481C47.9874 34.2902 48.3028 34.8313 48.64 35.3605C48.7986 35.6116 48.7986 35.6116 48.7986 35.7214C47.8513 35.7214 46.904 35.7214 45.9281 35.7214C45.7504 35.4136 45.7504 35.4136 45.5692 35.0995C45.2675 34.5771 44.9629 34.0564 44.6555 33.5373C44.476 33.2342 44.2987 32.93 44.123 32.6248C43.9796 32.3769 43.833 32.1308 43.6871 31.8843C43.4229 31.4382 43.1622 30.9902 42.9033 30.541C42.5583 29.9423 42.2061 29.3479 41.8489 28.7562C41.7243 28.8688 41.6462 28.9827 41.5647 29.1284C41.5265 29.1959 41.5265 29.1959 41.4876 29.2647C41.4604 29.3134 41.4332 29.3621 41.4051 29.4123C41.3462 29.5166 41.2872 29.6208 41.2281 29.725C41.1976 29.7788 41.1671 29.8325 41.1357 29.8879C40.989 30.1445 40.8384 30.3988 40.6875 30.653C40.4682 31.0229 40.2506 31.3936 40.036 31.7662C39.7907 32.1918 39.5415 32.615 39.2912 33.0377C39.1276 33.3143 38.9645 33.5911 38.805 33.87C38.7558 33.9548 38.7054 34.0391 38.6536 34.1224C38.5105 34.3564 38.4058 34.5722 38.3295 34.8355C38.2094 35.1877 38.0569 35.5268 37.7194 35.7214C37.0038 35.9715 36.1245 35.8633 35.3802 35.8425C35.0674 35.835 34.7545 35.8343 34.4416 35.8329C33.8499 35.8292 33.2585 35.8194 32.6669 35.8074C32.1941 35.7979 31.7214 35.7914 31.2485 35.787C31.2152 35.7867 31.1818 35.7864 31.1475 35.786C30.9801 35.7845 30.8127 35.783 30.6453 35.7815C29.2598 35.769 27.8745 35.748 26.4892 35.7214C26.537 35.6348 26.5848 35.5481 26.6327 35.4615C26.6593 35.4132 26.6859 35.365 26.7134 35.3153C26.999 34.7985 27.2888 34.2847 27.5925 33.778C27.7842 33.458 27.9726 33.1362 28.1605 32.8141C28.1926 32.759 28.2247 32.7039 28.2578 32.6472C28.3237 32.5342 28.3896 32.4212 28.4555 32.3082C28.6141 32.0362 28.7729 31.7644 28.9317 31.4925C29.1229 31.1651 29.3141 30.8376 29.5053 30.5101C30.468 28.861 30.468 28.861 30.7865 28.3236C30.846 28.2232 30.9055 28.1228 30.9649 28.0224C30.9943 27.9728 31.0237 27.9233 31.0539 27.8722C31.2983 27.4586 31.537 27.0421 31.7726 26.6236C31.7982 26.5784 31.8238 26.5332 31.8502 26.4867C31.8726 26.4469 31.895 26.4071 31.9181 26.366C31.9784 26.2687 31.9784 26.2687 32.0791 26.1692C32.1983 26.1572 32.1983 26.1572 32.3495 26.1579C32.4341 26.1579 32.4341 26.1579 32.5205 26.1579C32.5817 26.1584 32.6429 26.1589 32.7059 26.1594C32.7683 26.1596 32.8308 26.1597 32.8951 26.1599C33.0612 26.1603 33.2273 26.1612 33.3934 26.1623C33.5628 26.1633 33.7323 26.1638 33.9017 26.1643C34.2342 26.1654 34.5668 26.1671 34.8993 26.1692C34.8279 26.3493 34.7481 26.5157 34.6522 26.6845C34.6233 26.7355 34.5944 26.7865 34.5647 26.839C34.5338 26.8929 34.503 26.9469 34.4712 27.0025C34.4393 27.0585 34.4075 27.1145 34.3746 27.1721C34.1405 27.5822 33.9013 27.9888 33.6581 28.3936C33.016 29.4663 32.3878 30.5472 31.7628 31.6296C31.5187 32.0525 31.2742 32.4751 31.0247 32.8949C31.0042 32.9295 30.9837 32.964 30.9626 32.9997C30.8265 33.2276 30.8265 33.2276 30.7698 33.2836C32.5812 33.3 34.3927 33.3164 36.259 33.3333C36.2922 33.2512 36.3255 33.1692 36.3597 33.0846C36.4119 32.9881 36.4659 32.8924 36.521 32.7975C36.5534 32.7416 36.5858 32.6858 36.6192 32.6282C36.6544 32.5678 36.6896 32.5075 36.7248 32.4471C36.7614 32.3843 36.7979 32.3214 36.8344 32.2585C37.0889 31.8209 37.346 31.3848 37.6041 30.9492C37.8286 30.5699 38.0499 30.1889 38.2702 29.8072C38.8109 28.8708 39.356 27.9369 39.9068 27.0062C39.96 26.9162 40.0131 26.826 40.0657 26.7356C40.1101 26.6614 40.1561 26.5882 40.2047 26.5167C40.2965 26.3781 40.342 26.298 40.3198 26.1311C40.198 25.8933 40.064 25.6642 39.9258 25.4353C39.8617 25.328 39.7976 25.2207 39.7336 25.1133C39.6838 25.0301 39.6838 25.0301 39.6331 24.9452C39.4698 24.6711 39.3091 24.3956 39.1484 24.12C39.1167 24.0658 39.0851 24.0116 39.0525 23.9557C38.8336 23.5805 38.6162 23.2044 38.3991 22.8282C38.174 22.4387 37.945 22.0513 37.7159 21.6641C37.5647 21.4086 37.4143 21.1528 37.2662 20.8955C37.0786 20.5697 36.8877 20.246 36.6965 19.9223C36.6657 19.8701 36.6349 19.8179 36.6032 19.7642C36.4444 19.4906 36.4444 19.4906 36.2682 19.2281C36.2086 19.1045 36.2086 19.1045 36.2405 18.9803C36.2632 18.9392 36.2859 18.8981 36.3094 18.8557C36.3316 18.8152 36.3538 18.7746 36.3767 18.7329C36.4022 18.6902 36.4277 18.6475 36.4539 18.6035C36.497 18.531 36.497 18.531 36.5409 18.4571C36.5867 18.3805 36.5867 18.3805 36.6335 18.3022C36.6972 18.1953 36.7608 18.0883 36.8244 17.9814C36.8721 17.9012 36.8721 17.9012 36.9208 17.8194C37.083 17.546 37.243 17.2712 37.4027 16.9963C37.5629 16.7218 37.5629 16.7218 37.6187 16.6667Z" fill="#FF8D00"/>
<path d="M27.8489 0C28.0674 0.0719312 28.1155 0.234745 28.2172 0.425995C28.2621 0.508205 28.3072 0.590342 28.3523 0.672419C28.3766 0.716574 28.4009 0.76073 28.4259 0.806223C28.5627 1.05103 28.7065 1.29183 28.8498 1.53296C29.0754 1.91323 29.2994 2.29428 29.5202 2.67724C29.8536 3.25502 30.1901 3.8309 30.53 4.40493C30.8861 5.00642 31.2386 5.60979 31.588 6.21508C31.8202 6.61741 32.0541 7.01874 32.2894 7.41935C32.4591 7.70817 32.6279 7.99743 32.7968 8.28669C32.8287 8.3414 32.8607 8.39612 32.8936 8.45249C32.9588 8.5643 33.0241 8.67611 33.0894 8.78792C33.2792 9.1131 33.4691 9.43824 33.659 9.76338C33.8171 10.0341 33.9752 10.3048 34.1331 10.5756C34.4375 11.0976 34.7427 11.6191 35.0504 12.1393C35.2904 12.5452 35.5296 12.9515 35.7676 13.3585C35.8173 13.4434 35.867 13.5283 35.9167 13.6132C35.9468 13.6647 35.9769 13.7163 36.008 13.7694C36.0346 13.815 36.0612 13.8605 36.0887 13.9075C36.1231 13.968 36.1231 13.968 36.1583 14.0299C36.179 14.0629 36.1998 14.096 36.2212 14.1301C36.2734 14.2664 36.2522 14.3392 36.2086 14.4776C36.1625 14.5722 36.1126 14.6651 36.0601 14.7565C36.0298 14.8096 35.9995 14.8626 35.9683 14.9173C35.9365 14.9723 35.9047 15.0273 35.8719 15.084C35.841 15.138 35.8101 15.192 35.7783 15.2477C35.6153 15.532 35.4486 15.8136 35.2776 16.0932C35.1315 16.3343 34.9906 16.5785 34.8489 16.8221C34.7825 16.9362 34.716 17.0502 34.6495 17.1642C34.6327 17.193 34.6159 17.2217 34.5986 17.2514C34.4205 17.5565 34.2415 17.8611 34.0621 18.1654C34.0335 18.214 34.0049 18.2625 33.9755 18.3126C33.9484 18.3585 33.9212 18.4045 33.8933 18.4519C33.8699 18.4916 33.8464 18.5313 33.8223 18.5722C33.7955 18.6165 33.7687 18.6608 33.741 18.7065C33.7264 18.7389 33.7119 18.7714 33.6969 18.8048C33.6159 18.9656 33.5557 19.0821 33.3779 19.1419C33.2347 19.1568 33.0962 19.1588 32.9523 19.1568C32.8982 19.1575 32.8441 19.1583 32.7884 19.1591C32.6097 19.1611 32.4312 19.1602 32.2524 19.1591C32.1282 19.1595 32.004 19.16 31.8797 19.1606C31.6193 19.1614 31.3589 19.1608 31.0985 19.1591C30.7648 19.1571 30.4313 19.1589 30.0976 19.1619C29.841 19.1637 29.5844 19.1634 29.3278 19.1625C29.2048 19.1623 29.0818 19.1628 28.9588 19.164C28.7867 19.1654 28.6148 19.1639 28.4427 19.1616C28.3919 19.1626 28.3412 19.1636 28.2888 19.1646C27.9505 19.1561 27.9505 19.1561 27.8019 19.0063C27.7241 18.8926 27.659 18.7794 27.5971 18.6567C27.5671 18.6067 27.537 18.5567 27.5061 18.5051C27.469 18.4386 27.469 18.4386 27.4311 18.3706C27.4028 18.3203 27.3746 18.27 27.3455 18.2181C27.3163 18.1658 27.2872 18.1136 27.2572 18.0597C26.9945 17.5923 26.7258 17.1294 26.4497 16.6697C26.34 16.4859 26.2321 16.3011 26.1241 16.1163C25.942 15.8048 25.759 15.4938 25.5752 15.1833C25.3239 14.7585 25.0738 14.3331 24.8273 13.9055C24.6008 13.5124 24.3717 13.1209 24.1412 12.7301C24.1107 12.6784 24.0803 12.6268 24.0489 12.5736C24.0206 12.5256 23.9922 12.4776 23.963 12.4281C23.9252 12.3642 23.9252 12.3642 23.8867 12.299C23.8335 12.2111 23.777 12.1251 23.7194 12.0398C23.6985 12.0762 23.6776 12.1127 23.6561 12.1502C23.4334 12.5368 23.2073 12.9214 22.9798 13.3053C22.7171 13.7489 22.4592 14.1949 22.2043 14.6429C21.9709 15.0521 21.732 15.458 21.4913 15.863C21.3236 16.1454 21.1594 16.4293 21 16.7164C20.9668 16.7164 20.9335 16.7164 20.8993 16.7164C20.8751 16.6738 20.8751 16.6738 20.8504 16.6303C20.7724 16.4931 20.6942 16.356 20.616 16.2189C20.5871 16.1681 20.5582 16.1172 20.5284 16.0648C20.3701 15.7873 20.209 15.5118 20.0424 15.239C19.9937 15.1587 19.9937 15.1587 19.9439 15.0768C19.8808 14.973 19.8171 14.8696 19.7527 14.7666C19.724 14.7193 19.6954 14.6721 19.6659 14.6234C19.6274 14.5612 19.6274 14.5612 19.5882 14.4978C19.5278 14.3491 19.5404 14.2804 19.5899 14.1294C19.6399 14.0242 19.6399 14.0242 19.7023 13.9185C19.7257 13.8783 19.7492 13.8381 19.7734 13.7967C19.8119 13.732 19.8119 13.732 19.8512 13.666C19.8913 13.5976 19.8913 13.5976 19.9323 13.5278C20.0193 13.3798 20.1067 13.2322 20.1942 13.0846C20.2528 12.9854 20.3114 12.8862 20.3699 12.787C20.4588 12.6365 20.5477 12.4859 20.6368 12.3354C20.8257 12.016 21.0129 11.6958 21.1983 11.3744C21.6934 10.5162 22.194 9.66118 22.6984 8.80828C23.1728 8.00557 23.6418 7.19979 24.1081 6.39246C24.4436 5.81201 24.7823 5.2335 25.1263 4.65796C25.3368 4.30582 25.5424 3.9511 25.7472 3.59573C25.9378 3.26549 26.1311 2.9369 26.3255 2.60883C26.6254 2.10254 26.9209 1.59387 27.2148 1.08412C27.4239 0.721417 27.6353 0.360137 27.8489 0ZM27.8489 4.87562C27.833 4.90351 27.8172 4.9314 27.8008 4.96014C27.3805 5.69796 26.9549 6.43263 26.5256 7.16539C26.4479 7.29801 26.3703 7.43067 26.2927 7.56336C26.2703 7.60168 26.2478 7.64001 26.2247 7.6795C26.1812 7.75393 26.1377 7.82841 26.0943 7.90294C25.9629 8.12809 25.8286 8.35124 25.6923 8.57354C25.6431 8.65457 25.6431 8.65457 25.593 8.73725C25.5286 8.84334 25.4636 8.9491 25.3979 9.05446C25.3688 9.10265 25.3397 9.15083 25.3097 9.20048C25.2834 9.24319 25.2571 9.28589 25.2301 9.32989C25.1681 9.48147 25.1788 9.54753 25.2302 9.70149C25.2865 9.82221 25.2865 9.82221 25.3589 9.94286C25.3854 9.9888 25.4119 10.0347 25.4392 10.0821C25.4679 10.1309 25.4965 10.1798 25.5261 10.2301C25.5557 10.2812 25.5854 10.3324 25.6159 10.385C25.7052 10.5388 25.795 10.6923 25.8849 10.8458C25.9316 10.9258 25.9783 11.0058 26.025 11.0858C26.1132 11.2369 26.2018 11.3878 26.2905 11.5386C26.4666 11.8379 26.6415 12.1379 26.8165 12.4378C27.0563 12.8485 27.2963 13.259 27.5369 13.6691C27.6983 13.9444 27.8592 14.2201 28.02 14.4958C28.3113 14.9951 28.6034 15.494 28.897 15.9919C28.9269 16.0426 28.9567 16.0933 28.9875 16.1455C29.0289 16.2156 29.0289 16.2156 29.0711 16.2871C29.0953 16.3281 29.1195 16.3691 29.1445 16.4114C29.1969 16.498 29.2527 16.5827 29.3094 16.6667C29.4258 16.6966 29.4258 16.6966 29.5639 16.7026C29.617 16.7063 29.6702 16.7101 29.725 16.714C31.0384 16.864 31.0384 16.864 32.2685 16.5673C32.5322 16.3063 32.6303 15.9902 32.7271 15.641C32.8071 15.405 32.9395 15.2196 33.08 15.0148C33.3576 14.6091 33.3576 14.6091 33.4241 14.1404C33.3482 13.9847 33.267 13.8625 33.1592 13.7279C33.0469 13.5798 32.9575 13.4199 32.8643 13.2596C32.7819 13.1179 32.6973 12.9776 32.6122 12.8374C32.4252 12.5276 32.2423 12.2156 32.0603 11.903C32.0288 11.8491 31.9974 11.7952 31.9651 11.7397C31.901 11.6297 31.837 11.5197 31.773 11.4098C31.676 11.2434 31.5789 11.0771 31.4817 10.9109C31.1918 10.4151 30.9025 9.91909 30.6156 9.42164C30.3666 8.98999 30.1136 8.56068 29.8598 8.13178C29.7086 7.87627 29.5582 7.62045 29.4101 7.36318C29.201 7.0001 28.9877 6.63951 28.774 6.27905C28.6274 6.03147 28.4816 5.78349 28.3386 5.53385C28.3132 5.48981 28.2878 5.44576 28.2617 5.40038C28.214 5.31745 28.1667 5.23435 28.1196 5.15106C28.0658 5.05762 28.0081 4.96633 27.9496 4.87562C27.9164 4.87562 27.8832 4.87562 27.8489 4.87562Z" fill="#FF7F00"/>
<path d="M16.2662 36.6667C16.6187 36.6667 16.6187 36.6667 16.7385 36.764C16.7748 36.8109 16.8111 36.8578 16.8485 36.9061C16.8796 36.9455 16.8796 36.9455 16.9114 36.9857C16.9831 37.0774 17.0528 37.1703 17.1223 37.2637C17.1487 37.2989 17.1752 37.3341 17.2024 37.3703C17.3193 37.5259 17.4357 37.6817 17.5512 37.8382C17.7982 38.1727 18.0537 38.5001 18.3131 38.8253C18.3411 38.8606 18.3691 38.8958 18.398 38.9321C18.4352 38.9786 18.4352 38.9786 18.4731 39.026C18.5324 39.1045 18.5324 39.1045 18.5827 39.204C18.5994 38.3667 18.616 37.5294 18.6331 36.6667C18.7494 36.6667 18.8658 36.6667 18.9856 36.6667C18.9856 37.7503 18.9856 38.8338 18.9856 39.9503C18.6331 39.9503 18.6331 39.9503 18.5458 39.8892C18.5253 39.8604 18.5049 39.8316 18.4838 39.802C18.4595 39.7692 18.4353 39.7364 18.4103 39.7026C18.3851 39.6663 18.36 39.63 18.3341 39.5927C18.2772 39.515 18.2203 39.4373 18.1633 39.3597C18.1335 39.3182 18.1037 39.2768 18.0729 39.2341C17.9088 39.009 17.737 38.7898 17.5661 38.5697C17.5024 38.487 17.4387 38.4044 17.3751 38.3217C17.1406 38.0182 16.9047 37.7156 16.6691 37.4129C16.6524 38.2503 16.6358 39.0876 16.6187 39.9503C16.5024 39.9503 16.386 39.9503 16.2662 39.9503C16.2662 38.8667 16.2662 37.7831 16.2662 36.6667Z" fill="#FF6C00"/>
<path d="M30.7664 36.7508C31.1792 37.0091 31.4006 37.3072 31.5755 37.7612C31.6896 38.3002 31.6392 38.8195 31.3509 39.2967C31.0836 39.6633 30.724 39.857 30.2945 39.9876C29.6955 40.0453 29.1911 39.9734 28.705 39.602C28.3114 39.2138 28.1884 38.823 28.1794 38.2867C28.1834 37.7843 28.3077 37.4224 28.6618 37.0524C29.199 36.5518 30.0915 36.4157 30.7664 36.7508ZM29.0017 37.2592C28.6978 37.5698 28.5812 37.8583 28.5351 38.2836C28.5834 38.7292 28.724 39.0896 29.0576 39.403C29.3447 39.5994 29.6617 39.7229 30.0144 39.7015C30.465 39.6105 30.8103 39.3763 31.0719 39.005C31.2724 38.6616 31.2848 38.2523 31.1882 37.8733C31.0444 37.4829 30.8438 37.2174 30.4708 37.0211C29.9313 36.7798 29.4409 36.8663 29.0017 37.2592Z" fill="#FF8100"/>
<path d="M39.1704 36.5983C39.2133 36.597 39.2562 36.5958 39.3003 36.5946C39.7666 36.5925 40.1348 36.7729 40.4892 37.0647C40.5274 37.1663 40.5274 37.1663 40.5396 37.2637C40.4829 37.3539 40.4829 37.3539 40.3885 37.4129C40.2486 37.4168 40.1671 37.3895 40.0615 37.2981C40.0344 37.2724 40.0073 37.2466 39.9793 37.2201C39.7239 36.9941 39.4283 36.9114 39.0874 36.9183C38.7087 36.9692 38.3917 37.1163 38.1426 37.4075C37.9245 37.7265 37.8369 38.0725 37.8705 38.4577C37.9488 38.8536 38.094 39.1956 38.4376 39.4314C38.8867 39.6751 39.2706 39.6905 39.7568 39.5515C39.8202 39.5272 39.8202 39.5272 39.8849 39.5025C39.931 39.485 39.9771 39.4675 40.0246 39.4494C40.1532 39.3391 40.1558 39.314 40.1723 39.1536C40.1755 39.0761 40.177 38.9986 40.1776 38.921C40.1807 38.7845 40.1838 38.6481 40.187 38.5075C39.8547 38.5075 39.5223 38.5075 39.1799 38.5075C39.1799 38.409 39.1799 38.3104 39.1799 38.209C39.6452 38.209 40.1105 38.209 40.5899 38.209C40.6024 38.5199 40.6024 38.5199 40.6151 38.8371C40.6188 38.9019 40.6224 38.9667 40.6262 39.0335C40.6343 39.4472 40.6343 39.4472 40.5058 39.6075C40.0629 39.9429 39.5256 40.041 38.9784 40C38.4781 39.924 38.0748 39.7563 37.7509 39.3626C37.437 38.9025 37.4086 38.4017 37.4676 37.8607C37.5641 37.4418 37.8068 37.0587 38.1727 36.8221C38.4971 36.6311 38.8008 36.5988 39.1704 36.5983Z" fill="#FF9000"/>
<path d="M21.2927 36.5983C21.3356 36.597 21.3785 36.5958 21.4226 36.5946C21.8889 36.5925 22.2571 36.7729 22.6115 37.0647C22.6497 37.1663 22.6497 37.1663 22.6619 37.2637C22.6052 37.3539 22.6052 37.3539 22.5108 37.4129C22.3709 37.4168 22.2894 37.3895 22.1838 37.2981C22.1567 37.2724 22.1296 37.2466 22.1016 37.2201C21.8462 36.9941 21.5506 36.9114 21.2097 36.9183C20.831 36.9692 20.514 37.1163 20.2649 37.4075C20.0468 37.7265 19.9592 38.0725 19.9928 38.4577C20.0711 38.8536 20.2163 39.1956 20.5599 39.4314C21.009 39.6751 21.3929 39.6905 21.8791 39.5515C21.9425 39.5272 21.9425 39.5272 22.0072 39.5025C22.0533 39.485 22.0994 39.4675 22.1469 39.4494C22.2755 39.3391 22.2781 39.314 22.2946 39.1536C22.2978 39.0761 22.2993 38.9986 22.2999 38.921C22.303 38.7845 22.3061 38.6481 22.3094 38.5075C21.977 38.5075 21.6446 38.5075 21.3022 38.5075C21.3022 38.409 21.3022 38.3104 21.3022 38.209C21.7675 38.209 22.2328 38.209 22.7122 38.209C22.7247 38.5199 22.7247 38.5199 22.7374 38.8371C22.7411 38.9019 22.7447 38.9667 22.7485 39.0335C22.7566 39.4472 22.7566 39.4472 22.6281 39.6075C22.1852 39.9429 21.6479 40.041 21.1007 40C20.6004 39.924 20.1971 39.7563 19.8732 39.3626C19.5593 38.9025 19.5309 38.4017 19.5899 37.8607C19.6864 37.4418 19.9291 37.0587 20.295 36.8221C20.6194 36.6311 20.9231 36.5988 21.2927 36.5983Z" fill="#FF7300"/>
<path d="M33.2878 36.6667C35.0316 36.6667 35.0316 36.6667 35.516 37.1181C35.8883 37.522 35.9808 37.9306 35.9728 38.4694C35.9508 38.7282 35.8822 38.9283 35.7554 39.1542C35.7289 39.2023 35.7289 39.2023 35.7019 39.2514C35.4921 39.5824 35.1646 39.7797 34.7923 39.8943C34.297 39.9743 33.7896 39.9503 33.2878 39.9503C33.2878 38.8667 33.2878 37.7831 33.2878 36.6667ZM33.6403 36.9154C33.6403 37.8184 33.6403 38.7214 33.6403 39.6517C34.5135 39.6624 34.5135 39.6624 35.2266 39.245C35.4751 38.9465 35.6171 38.5967 35.6043 38.209C35.5542 37.8069 35.3613 37.4782 35.0504 37.2139C34.5823 36.9086 34.2211 36.9154 33.6403 36.9154Z" fill="#FF8900"/>
<path d="M9.71942 36.6667C10.9784 36.6667 10.9784 36.6667 11.2806 36.8159C11.491 37.0238 11.5802 37.24 11.5845 37.5354C11.5674 37.8097 11.5259 38.0019 11.3309 38.209C11.1848 38.3028 11.0346 38.3829 10.8777 38.4577C10.9314 38.5428 10.9852 38.628 11.0389 38.713C11.0848 38.7856 11.1306 38.8582 11.1764 38.9309C11.2806 39.0959 11.3851 39.2606 11.4932 39.4232C11.5248 39.4709 11.5565 39.5186 11.589 39.5678C11.6172 39.6097 11.6454 39.6515 11.6744 39.6947C11.7338 39.801 11.7338 39.801 11.7338 39.9503C11.5844 39.9668 11.4761 39.9782 11.3309 39.9503C11.2219 39.8369 11.1584 39.7532 11.0823 39.6207C11.0616 39.5873 11.0409 39.554 11.0197 39.5197C10.9765 39.45 10.9338 39.38 10.8917 39.3098C10.8284 39.2057 10.7623 39.1042 10.6946 39.0028C10.6629 38.9555 10.6629 38.9555 10.6307 38.9073C10.6003 38.8617 10.6003 38.8617 10.5692 38.8153C10.3741 38.5231 10.3741 38.5231 10.3741 38.408C10.2744 38.408 10.1747 38.408 10.0719 38.408C10.0719 38.9169 10.0719 39.4259 10.0719 39.9503C9.95561 39.9503 9.83928 39.9503 9.71942 39.9503C9.71942 38.8667 9.71942 37.7831 9.71942 36.6667ZM10.0719 36.9154C10.0719 37.3259 10.0719 37.7363 10.0719 38.1592C10.5938 38.1718 10.5938 38.1718 11.0256 37.9353C11.1911 37.7371 11.1975 37.6202 11.1799 37.3632C11.096 37.1809 11.0023 37.0669 10.8273 36.9652C10.576 36.8848 10.3446 36.9154 10.0719 36.9154Z" fill="#FF5F00"/>
<path d="M45.4748 36.6169C45.5745 36.6169 45.6742 36.6169 45.777 36.6169C45.9416 37.0146 46.1058 37.4125 46.2694 37.8106C46.3454 37.9954 46.4216 38.1802 46.4981 38.3649C46.5719 38.5431 46.6453 38.7215 46.7185 38.9C46.7464 38.9681 46.7745 39.036 46.8028 39.1039C46.8424 39.1992 46.8815 39.2946 46.9204 39.3901C46.9428 39.4443 46.9651 39.4986 46.9882 39.5545C47.0344 39.6967 47.0462 39.8022 47.036 39.9502C46.9196 39.9502 46.8033 39.9502 46.6835 39.9502C46.667 39.9112 46.6506 39.8721 46.6337 39.8319C46.6117 39.7796 46.5897 39.7274 46.567 39.6735C46.5454 39.6221 46.5238 39.5708 46.5015 39.5178C46.4288 39.3465 46.3547 39.1757 46.2806 39.005C45.8485 39.005 45.4164 39.005 44.9712 39.005C44.8383 39.3169 44.7053 39.6289 44.5683 39.9502C44.4354 39.9502 44.3024 39.9502 44.1655 39.9502C44.1986 39.7554 44.2572 39.584 44.3317 39.4008C44.3557 39.3414 44.3798 39.282 44.4045 39.2207C44.4308 39.1564 44.4571 39.0921 44.4834 39.0277C44.5103 38.9614 44.5372 38.8951 44.5641 38.8287C44.6347 38.6545 44.7057 38.4805 44.7766 38.3064C44.8346 38.1641 44.8924 38.0217 44.9502 37.8793C45.019 37.7096 45.088 37.54 45.1569 37.3704C45.1701 37.338 45.1833 37.3055 45.1968 37.2722C45.234 37.1807 45.2713 37.0892 45.3086 36.9978C45.3404 36.9197 45.3404 36.9197 45.3729 36.84C45.4044 36.7646 45.4379 36.6899 45.4748 36.6169ZM45.5755 37.3632C45.4915 37.5694 45.4076 37.7757 45.3237 37.982C45.2997 38.0409 45.2757 38.0998 45.251 38.1605C45.2282 38.2164 45.2055 38.2724 45.1821 38.33C45.161 38.3819 45.1399 38.4337 45.1182 38.4871C45.069 38.5933 45.069 38.5933 45.0719 38.6567C45.4376 38.6567 45.8032 38.6567 46.1799 38.6567C46.0137 38.2298 45.8475 37.803 45.6763 37.3632C45.643 37.3632 45.6098 37.3632 45.5755 37.3632Z" fill="#FF9900"/>
<path d="M14.3022 36.6169C14.4019 36.6169 14.5016 36.6169 14.6043 36.6169C14.769 37.0146 14.9332 37.4125 15.0968 37.8106C15.1728 37.9954 15.2489 38.1802 15.3254 38.3649C15.3993 38.5431 15.4727 38.7215 15.5458 38.9C15.5738 38.9681 15.6019 39.036 15.6301 39.1039C15.6698 39.1992 15.7088 39.2946 15.7477 39.3901C15.7701 39.4443 15.7925 39.4986 15.8155 39.5545C15.8618 39.6967 15.8735 39.8022 15.8633 39.9502C15.747 39.9502 15.6306 39.9502 15.5108 39.9502C15.4944 39.9112 15.4779 39.8721 15.461 39.8319C15.439 39.7796 15.417 39.7274 15.3943 39.6735C15.3727 39.6221 15.3511 39.5708 15.3288 39.5178C15.2561 39.3465 15.182 39.1757 15.1079 39.005C14.6758 39.005 14.2437 39.005 13.7986 39.005C13.6656 39.3169 13.5327 39.6289 13.3957 39.9502C13.2627 39.9502 13.1298 39.9502 12.9928 39.9502C13.0259 39.7554 13.0846 39.584 13.159 39.4008C13.1831 39.3414 13.2071 39.282 13.2319 39.2207C13.2581 39.1564 13.2844 39.0921 13.3107 39.0277C13.3376 38.9614 13.3645 38.8951 13.3914 38.8287C13.4621 38.6545 13.533 38.4805 13.604 38.3064C13.6619 38.1641 13.7197 38.0217 13.7775 37.8793C13.8464 37.7096 13.9153 37.54 13.9843 37.3704C13.9974 37.338 14.0106 37.3055 14.0242 37.2722C14.0614 37.1807 14.0987 37.0892 14.1359 36.9978C14.1677 36.9197 14.1677 36.9197 14.2002 36.84C14.2317 36.7646 14.2652 36.6899 14.3022 36.6169ZM14.4029 37.3632C14.3188 37.5694 14.2349 37.7757 14.1511 37.982C14.1271 38.0409 14.103 38.0998 14.0783 38.1605C14.0556 38.2164 14.0329 38.2724 14.0094 38.33C13.9883 38.3819 13.9672 38.4337 13.9455 38.4871C13.8963 38.5933 13.8963 38.5933 13.8993 38.6567C14.2649 38.6567 14.6305 38.6567 15.0072 38.6567C14.841 38.2298 14.6748 37.803 14.5036 37.3632C14.4704 37.3632 14.4371 37.3632 14.4029 37.3632Z" fill="#FF6600"/>
<path d="M23.3669 36.6667C23.4832 36.6667 23.5996 36.6667 23.7194 36.6667C23.7204 36.7259 23.7214 36.785 23.7225 36.846C23.7263 37.0676 23.7308 37.2892 23.7354 37.5108C23.7373 37.6064 23.7391 37.7019 23.7407 37.7974C23.743 37.9355 23.7459 38.0736 23.7489 38.2117C23.7495 38.2537 23.7501 38.2958 23.7507 38.3391C23.7606 38.7449 23.7812 39.1926 24.0719 39.5025C24.3105 39.6478 24.5476 39.6777 24.8218 39.6333C25.0056 39.5792 25.1036 39.4932 25.2302 39.3532C25.3799 39.0357 25.4047 38.7632 25.4071 38.4157C25.408 38.3655 25.4089 38.3153 25.4098 38.2635C25.4125 38.1044 25.4142 37.9452 25.4159 37.7861C25.4176 37.6776 25.4193 37.5692 25.4211 37.4607C25.4254 37.1961 25.4288 36.9314 25.4317 36.6667C25.548 36.6667 25.6643 36.6667 25.7842 36.6667C25.7893 37.0127 25.7928 37.3588 25.7952 37.7049C25.7963 37.8225 25.7976 37.9401 25.7994 38.0577C25.8018 38.2272 25.803 38.3968 25.8038 38.5664C25.8049 38.6185 25.8059 38.6706 25.807 38.7242C25.8071 39.0922 25.752 39.4112 25.4998 39.6955C25.2382 39.9467 24.9555 40.0016 24.6007 40.0124C24.2416 40.0027 23.952 39.9302 23.6691 39.7015C23.352 39.3274 23.352 38.8778 23.3571 38.4109C23.3572 38.3607 23.3574 38.3106 23.3575 38.2589C23.3581 38.1002 23.3593 37.9416 23.3606 37.783C23.3611 37.6748 23.3616 37.5665 23.362 37.4583C23.3631 37.1944 23.3648 36.9306 23.3669 36.6667Z" fill="#FF7900"/>
<path d="M42.1007 36.6667C42.8486 36.6667 43.5964 36.6667 44.3669 36.6667C44.3669 36.7488 44.3669 36.8309 44.3669 36.9154C44.0512 36.9154 43.7354 36.9154 43.4101 36.9154C43.4101 37.9169 43.4101 38.9184 43.4101 39.9503C43.2937 39.9503 43.1774 39.9503 43.0576 39.9503C43.0576 38.9488 43.0576 37.9473 43.0576 36.9154C42.7418 36.9154 42.426 36.9154 42.1007 36.9154C42.1007 36.8333 42.1007 36.7512 42.1007 36.6667Z" fill="#FF9600"/>
<path d="M7 36.6667C7.74784 36.6667 8.49568 36.6667 9.26619 36.6667C9.26619 36.7488 9.26619 36.8309 9.26619 36.9154C8.95043 36.9154 8.63468 36.9154 8.30935 36.9154C8.30935 37.9169 8.30935 38.9184 8.30935 39.9503C8.19302 39.9503 8.07669 39.9503 7.95683 39.9503C7.95683 38.9488 7.95683 37.9473 7.95683 36.9154C7.64108 36.9154 7.32532 36.9154 7 36.9154C7 36.8333 7 36.7512 7 36.6667Z" fill="#FF5B00"/>
<path d="M47.4892 36.6667C47.6055 36.6667 47.7219 36.6667 47.8417 36.6667C47.8417 37.6517 47.8417 38.6368 47.8417 39.6517C48.224 39.6517 48.6062 39.6517 49 39.6517C49 39.7503 49 39.8488 49 39.9503C48.5014 39.9503 48.0029 39.9503 47.4892 39.9503C47.4892 38.8667 47.4892 37.7831 47.4892 36.6667Z" fill="#FF9C00"/>
<path d="M26.5899 36.6667C26.7063 36.6667 26.8226 36.6667 26.9424 36.6667C26.9424 37.6517 26.9424 38.6368 26.9424 39.6517C27.3247 39.6517 27.7069 39.6517 28.1007 39.6517C28.1007 39.7503 28.1007 39.8488 28.1007 39.9503C27.6022 39.9503 27.1036 39.9503 26.5899 39.9503C26.5899 38.8667 26.5899 37.7831 26.5899 36.6667Z" fill="#FF7D00"/>
<path d="M41.295 36.6667C41.4113 36.6667 41.5276 36.6667 41.6475 36.6667C41.6475 37.7503 41.6475 38.8338 41.6475 39.9503C41.5312 39.9503 41.4148 39.9503 41.295 39.9503C41.295 38.8667 41.295 37.7831 41.295 36.6667Z" fill="#FF9400"/>
<path d="M36.5611 36.6667C36.6775 36.6667 36.7938 36.6667 36.9137 36.6667C36.9137 37.7503 36.9137 38.8338 36.9137 39.9503C36.7973 39.9503 36.681 39.9503 36.5611 39.9503C36.5611 38.8667 36.5611 37.7831 36.5611 36.6667Z" fill="#FF8C00"/>
<path d="M12.2374 36.6667C12.3537 36.6667 12.4701 36.6667 12.5899 36.6667C12.5899 37.7503 12.5899 38.8338 12.5899 39.9503C12.4736 39.9503 12.3573 39.9503 12.2374 39.9503C12.2374 38.8667 12.2374 37.7831 12.2374 36.6667Z" fill="#FF6200"/>
</g>
<defs>
<clipPath id="clip0_42_2">
<rect width="42" height="40" fill="white" transform="translate(7)"/>
</clipPath>
</defs>
</svg>
